<svg width="150" height="90" xmlns="http://www.w3.org/2000/svg">

 <g>
  <title>background</title>
  <rect fill="none" id="canvas_background" height="92" width="152" y="-1" x="-1"/>
 </g>
 <g>
  <title>Layer 1</title>
  <g id="svg_1">
   <polygon id="svg_2" points="0,-33 149.75601196289062,-33 149.75601196289062,122.75601196289062 0,122.75601196289062 0,-33 " fill="#FFFFFF" clip-rule="evenodd" fill-rule="evenodd"/>
   <path id="svg_3" d="m74.878,4.98631c37.70393,0 68.27108,17.86108 68.27108,39.89169c0,22.03141 -30.56714,39.89088 -68.27108,39.89088c-37.70471,0 -68.27108,-17.86027 -68.27108,-39.89088c0,-22.03061 30.56637,-39.89169 68.27108,-39.89169l0,0z"/>
   <path id="svg_4" d="m98.18794,17.15389c0,0 6.35676,9.15033 3.43865,13.89195c-2.13964,3.47864 -5.73134,4.35053 -8.75278,4.35053c-8.88641,0 -9.2065,-5.25716 -9.2065,-5.25716l-1.22054,-15.99934l-4.15108,6.85709l-6.8369,0l-4.15108,-6.85709l-1.22054,15.99934c0,0 -0.32087,5.25716 -9.20728,5.25716c-3.02067,0 -6.61159,-0.87269 -8.752,-4.35053c-2.91811,-4.74243 3.43865,-13.89195 3.43865,-13.89195c-17.50168,5.03333 -29.54627,15.55572 -29.54627,27.72411c0,9.49941 7.34267,17.99522 18.88926,23.66044c-1.36738,-2.00638 -4.73533,-7.84129 -0.9494,-11.98658c4.63977,-5.07858 11.96457,-2.03062 15.13906,3.04796c0,0 0.24395,-5.84138 5.86031,-5.07858c5.61636,0.76037 12.94116,7.61908 13.91775,15.744c0.97659,-8.12573 8.30217,-14.98362 13.91775,-15.744c5.61636,-0.7628 5.86031,5.07858 5.86031,5.07858c3.1745,-5.07858 10.50007,-8.12734 15.13984,-3.04796c3.78515,4.14528 0.41721,9.98019 -0.95017,11.98658c11.54659,-5.66603 18.88926,-14.16103 18.88926,-23.66044c0,-12.16758 -12.04537,-22.68997 -29.54627,-27.72411l0,0zm-23.30993,-8.19118c33.94675,0 61.46681,16.08014 61.46681,35.91529s-27.52006,35.91609 -61.46681,35.91609c-33.94752,0 -61.46836,-16.08095 -61.46836,-35.91609s27.52084,-35.91529 61.46836,-35.91529l0,0z" fill="#FFDD00"/>
  </g>
 </g>
</svg>